<svg class="hidden">
	<symbol
		xmlns="http://www.w3.org/2000/svg" viewBox="0 0 14 14" id="call">
		<path fill="#919EAB" fill-rule="evenodd" d="M10.048 8.444c-.25 0-.47.055-.648.17-.529.339-.95.601-1.153.601-.112 0-.231-.1-.493-.326l-.044-.04c-.728-.632-.883-.795-1.165-1.09l-.072-.075c-.052-.052-.095-.1-.14-.143-.246-.255-.425-.438-1.057-1.154l-.028-.031c-.302-.342-.5-.565-.513-.728-.012-.16.127-.418.481-.899.43-.58.446-1.297.052-2.128-.314-.656-.827-1.285-1.28-1.837l-.04-.048C3.558.239 3.105 0 2.6 0c-.561 0-1.026.302-1.273.461-.02.012-.04.028-.06.04-.552.35-.954.831-1.105 1.32-.227.736-.378 1.69.708 3.676.938 1.718 1.79 2.871 3.141 4.26 1.273 1.304 1.838 1.725 3.102 2.64C8.521 13.415 9.873 14 10.82 14c.879 0 1.57 0 2.557-1.19 1.034-1.248.604-2.012-.016-2.652-.58-.597-2.231-1.714-3.313-1.714z" opacity=".7"></path>
	</symbol>
	<symbol
		xmlns="http://www.w3.org/2000/svg" viewBox="0 0 114 115" id="phone">
		<g fill="none" fill-rule="evenodd">
			<path stroke="#2A5082" stroke-width="2" d="M7.345 113.822H99m1.452 0h7.333m2.549 0H114m-113.166 0H4.5"></path>
			<path fill="#E9EAEB" fill-rule="nonzero" d="M35.714 92.854a5.741 5.741 0 01-5.741-5.74V36.516C18.056 42.551 9.882 54.905 9.882 69.176c0 20.21 16.384 36.595 36.595 36.595 11.178 0 21.179-5.017 27.891-12.916H35.714v-.001z"></path>
			<path stroke="#2A5082" stroke-width="2" d="M62.98 92.854H35.714a5.741 5.741 0 01-5.741-5.74V23.97c0-3.17 2.57-5.741 5.741-5.741h47.358a5.74 5.74 0 015.74 5.741v37.312"></path>
			<path stroke="#2A5082" stroke-width="2" d="M57.24 81.374H35.714V29.71h47.358v31.572"></path>
			<path fill="#FFF" fill-rule="nonzero" d="M90.248 68.458h-2.87c0-1.614-1.525-2.87-2.87-2.87h-2.87c-.55-.862-1.967-1.436-2.871-1.436h-2.87V54.107a2.87 2.87 0 00-5.74 0v21.527l-1.917 1.84-3.75-5.813c-2.299-3.163-5.813-1.388-5.813 0 0 0 4.354 13.893 4.978 14.868 1.002 1.57 5.068 5.099 5.068 6.326v5.741h21.526V94.29c0-1.935 2.87-4.271 2.87-7.176V71.328c-.001-1.614-1.525-2.87-2.871-2.87z"></path>
			<path stroke="#2A5082" stroke-width="2" d="M68.722 98.596v-5.741c0-1.228-4.066-4.756-5.068-6.326-.623-.976-4.978-14.868-4.978-14.868 0-1.388 3.515-3.163 5.813 0l3.75 5.813 1.917-1.84V54.107a2.87 2.87 0 015.74 0v18.657-8.612h2.87c.904 0 2.321.573 2.871 1.436h2.87c1.345 0 2.87 1.256 2.87 2.87h2.87c1.346 0 2.87 1.256 2.87 2.87v15.786c0 2.904-2.87 5.241-2.87 7.176v4.306m-8.609-33.008v7.176m5.74-4.306v5.74"></path>
			<path fill="#C1F6FD" fill-rule="nonzero" d="M65.852 97.16h27.267v16.176H65.852z"></path>
			<path stroke="#2A5082" stroke-width="2" d="M93.118 113.336V97.16H65.852v16.176M54.37 23.97h11.482"></path>
			<path fill="#FFF" fill-rule="nonzero" stroke="#2A5082" stroke-width="2" d="M58.705 49.802H41.484l-.03-14.351h17.222z"></path>
			<path stroke="#2A5082" stroke-width="2" d="M62.98 38.321h15.787m-15.787 5.74h11.482M40.019 55.542H60.11m-20.091 5.74H60.11m-20.091 5.74H51.5"></path>
			<path stroke="#BCC0C4" stroke-width="2" d="M59.666 11.833h-12.65c-.937-1.833-3.144-3.722-5.717-3.722-.816 0-1.594.193-2.308.48-1.434-3.822-5.11-6.689-9.432-6.689-5.561 0-10.069 6.266-10.08 9.932H4.675m9.164 14.664H1.008m16.497 0h3.668m42.16-14.665h3.665m3.667 0h3.666"></path>
		</g>
	</symbol>
	<symbol
		xmlns="http://www.w3.org/2000/svg" viewBox="0 0 118 116" id="work">
		<g fill="none" fill-rule="evenodd" transform="translate(0 1)">
			<g transform="translate(12 20)">
				<circle cx="42.643" cy="47.5" r="41.837" fill="#E9EAEB" fill-rule="nonzero"></circle>
				<path fill="#C1F6FD" fill-rule="nonzero" d="M45.64 65.537a8.718 8.718 0 00-8.228-5.834H25.21V47.5l3.486 3.486h12.202c7.974 0 6.973-8.716 6.973-8.716H35.669L23.467 30.068h-6.973a6.973 6.973 0 00-6.972 6.973v26.147c0 5.775 4.683 10.459 10.459 10.459h15.688l10.459 20.919h9.67L45.64 65.537z"></path>
				<path fill="#FFF" fill-rule="nonzero" stroke="#2A5082" stroke-width="2" d="M21.724 24.674c-4.867 0-8.716-3.982-8.716-8.894v-2.966c0-4.913 3.849-8.894 8.716-8.894 4.868 0 8.716 3.981 8.716 8.894v2.966c-.001 4.912-3.849 8.894-8.716 8.894z"></path>
				<path stroke="#2A5082" stroke-width="2" d="M25.21 50.986h61.012m-34.865-6.972h10.46v6.972m6.973 0v-6.972h10.459V23.095h-8.716"></path>
				<path fill="#FFF" fill-rule="nonzero" stroke="#2A5082" stroke-width="2" d="M68.79 37.041h-5.229V.434h5.229a3.486 3.486 0 013.486 3.486v29.634a3.487 3.487 0 01-3.486 3.487z"></path>
				<path stroke="#2A5082" stroke-width="2" d="M18.237 84.106v10.46m27.891 0L35.669 73.647H19.98c-5.776 0-10.459-4.684-10.459-10.459V37.041a6.973 6.973 0 016.972-6.973h6.973L35.668 42.27H47.87s1.001 8.716-6.973 8.716H28.695L18.237 40.527"></path>
				<path stroke="#2A5082" stroke-width="2" d="M25.21 47.5v12.203h12.202a8.718 8.718 0 018.228 5.834l10.159 29.029M2.548 33.555v33.121c0 7.7 6.245 13.944 13.945 13.944h15.689"></path>
				<path stroke="#2A5082" stroke-width="2" d="M2.548 59.703h13.946l5.23 6.973m67.985-15.69h3.486"></path>
			</g>
			<path stroke="#2A5082" stroke-width="2" d="M11.345 113.822H103m1.452 0h7.333m2.549 0H118m-113.166 0H8.5"></path>
			<path stroke="#BCC0C4" stroke-width="2" d="M102.283 25.849v8.123m4.061-4.062h-8.122"></path>
			<circle cx="110.405" cy="10.958" r="4.062" stroke="#BCC0C4" stroke-width="2"></circle>
			<path stroke="#BCC0C4" stroke-width="2" d="M58.936 10.652H46.287c-.938-1.833-3.145-3.722-5.717-3.722-.816 0-1.594.193-2.308.48C36.828 3.588 33.152.721 28.83.721c-5.561 0-10.069 6.266-10.08 9.932H3.945m9.164 14.663H.278m16.497 0h3.668m42.161-14.664h3.664m3.668 0h3.666"></path>
		</g>
	</symbol>
	<symbol
		xmlns="http://www.w3.org/2000/svg" viewBox="0 0 122 110" id="home">
		<g fill="none" fill-rule="evenodd" stroke-width="2" transform="translate(0 1)">
			<path stroke="#2A5082" d="M32.292 33.92h49.386V108H32.292z"></path>
			<path fill="#E9EAEB" fill-rule="nonzero" stroke="#2A5082" d="M37.99 24.423h37.989v9.498H37.99zm15.196 68.382h11.395V108H53.186z"></path>
			<path stroke="#2A5082" d="M41.789 60.514v-9.498h9.498v9.498m-9.498 15.195v-9.498h9.498v9.498m-37.99-15.195h18.995V108H13.297z"></path>
			<path fill="#E9EAEB" fill-rule="nonzero" stroke="#2A5082" d="M18.995 51.016h13.297v9.498H18.995z"></path>
			<path fill="#C1F6FD" fill-rule="nonzero" stroke="#2A5082" d="M81.818 47.217c-11.463 0-20.757 9.293-20.757 20.756 0 17.912 17.7 20.334 19.188 38.546.065.828.735 1.481 1.568 1.481.831 0 1.5-.653 1.564-1.481 1.489-18.212 19.19-20.634 19.19-38.546.002-11.463-9.293-20.756-20.753-20.756z"></path>
			<circle cx="81.678" cy="68.112" r="7.598" fill="#FFF" fill-rule="nonzero" stroke="#2A5082"></circle>
			<path stroke="#2A5082" d="M7.598 108h94.975"></path>
			<path stroke="#BCC0C4" d="M68.381 11.127H55.272c-.971-1.899-3.258-3.857-5.924-3.857-.845 0-1.651.2-2.391.497-1.486-3.96-5.295-6.931-9.774-6.931-5.762 0-10.434 6.493-10.445 10.292H11.397m9.497 15.195H7.598m113.968-5.698h-5.649c-1.313-3.799-4.04-4.746-7.307-4.35-1.425-2.455-4.049-3.966-7.094-3.966-4.52 0-8.182 2.618-8.223 8.316h-7.818m-60.782 5.698h3.8m43.688-15.196h3.798m3.799 0h3.799"></path>
			<path stroke="#2A5082" d="M3.799 108H0m106.37 0h7.599m3.799 0h3.798"></path>
		</g>
	</symbol>
</svg>