<svg class="hidden">
	<symbol
		xmlns="http://www.w3.org/2000/svg" viewBox="0 0 14 14" id="call">
		<path fill="#919EAB" fill-rule="evenodd" d="M10.048 8.444c-.25 0-.47.055-.648.17-.529.339-.95.601-1.153.601-.112 0-.231-.1-.493-.326l-.044-.04c-.728-.632-.883-.795-1.165-1.09l-.072-.075c-.052-.052-.095-.1-.14-.143-.246-.255-.425-.438-1.057-1.154l-.028-.031c-.302-.342-.5-.565-.513-.728-.012-.16.127-.418.481-.899.43-.58.446-1.297.052-2.128-.314-.656-.827-1.285-1.28-1.837l-.04-.048C3.558.239 3.105 0 2.6 0c-.561 0-1.026.302-1.273.461-.02.012-.04.028-.06.04-.552.35-.954.831-1.105 1.32-.227.736-.378 1.69.708 3.676.938 1.718 1.79 2.871 3.141 4.26 1.273 1.304 1.838 1.725 3.102 2.64C8.521 13.415 9.873 14 10.82 14c.879 0 1.57 0 2.557-1.19 1.034-1.248.604-2.012-.016-2.652-.58-.597-2.231-1.714-3.313-1.714z" opacity=".7"></path>
	</symbol>
	<symbol
		xmlns="http://www.w3.org/2000/svg" viewBox="0 0 33 33" id="linked-in">
		<path fill="#6B7C93" fill-rule="evenodd" d="M0 16.5C0 7.387 7.387 0 16.5 0S33 7.387 33 16.5 25.613 33 16.5 33 0 25.613 0 16.5zm25 1.337c0-3.3-1.616-4.837-3.771-4.837-1.74 0-2.517 1.045-2.953 1.775v.036h-.021l.021-.036v-1.523H15C15.044 14.261 15 24 15 24h3.276v-6.003c0-.322.022-.64.109-.87.237-.643.775-1.307 1.68-1.307 1.186 0 1.66.986 1.66 2.43V24H25v-6.163zM11.012 8C9.796 8 9 8.864 9 10c0 1.11.773 2 1.966 2h.023c1.24 0 2.011-.89 2.011-2-.024-1.136-.771-2-1.988-2zM9 23h3V13H9v10z"></path>
	</symbol>
	<symbol
		xmlns="http://www.w3.org/2000/svg" viewBox="0 0 33 33" id="twitter">
		<path fill="#6B7C93" fill-rule="evenodd" d="M0 16.5C0 7.387 7.387 0 16.5 0S33 7.387 33 16.5 25.613 33 16.5 33 0 25.613 0 16.5zm26-5.725a7.23 7.23 0 01-2.12.596 3.788 3.788 0 001.623-2.094 7.331 7.331 0 01-2.347.92A3.64 3.64 0 0020.461 9c-2.039 0-3.692 1.696-3.692 3.787 0 .297.032.586.095.863-3.068-.158-5.789-1.666-7.61-3.958-.318.559-.5 1.21-.5 1.904 0 1.315.653 2.474 1.643 3.153a3.622 3.622 0 01-1.673-.476v.048c0 1.835 1.274 3.366 2.962 3.714-.31.086-.636.133-.973.133-.238 0-.47-.024-.695-.07.47 1.505 1.833 2.6 3.448 2.63A7.29 7.29 0 018 22.297 10.247 10.247 0 0013.66 24c6.793 0 10.505-5.772 10.505-10.778l-.012-.49A7.481 7.481 0 0026 10.775z"></path>
	</symbol>
	<symbol
		xmlns="http://www.w3.org/2000/svg" viewBox="0 0 33 33" id="facebook">
		<path fill="#6B7C93" fill-rule="evenodd" d="M0 16.5C0 7.387 7.387 0 16.5 0S33 7.387 33 16.5 25.613 33 16.5 33 0 25.613 0 16.5zM17.32 26v-9.001h2.366L20 13.897h-2.68l.004-1.552c0-.81.073-1.243 1.18-1.243h1.48V8h-2.368c-2.843 0-3.844 1.505-3.844 4.035v1.862H12V17h1.772v9h3.548z"></path>
	</symbol>
	<symbol
		xmlns="http://www.w3.org/2000/svg" viewBox="0 0 24 23" id="menu-bar">
		<path fill="#919EAB" fill-rule="evenodd" d="M15 2c0 .536-.06.688 0 1-.304-.063-.451 0-1 0H1c-.549 0-.696-.063-1 0 .06-.312 0-.464 0-1V1C0 .464.06.312 0 0c.304.063.451 0 1 0h13c.549 0 .696.063 1 0-.06.312 0 .464 0 1v1zM1 10c-.536 0-.688-.063-1 0 .063-.312 0-.464 0-1V8c0-.536.063-.688 0-1 .312.063.464 0 1 0h22c.536 0 .688.063 1 0-.063.312 0 .464 0 1v1c0 .536-.063.688 0 1-.312-.063-.464 0-1 0H1zm0 13c-.536 0-.688-.063-1 0 .063-.312 0-.464 0-1v-1c0-.536.063-.688 0-1 .312.063.464 0 1 0h22c.536 0 .688.063 1 0-.063.312 0 .464 0 1v1c0 .536-.063.688 0 1-.312-.063-.464 0-1 0H1zm13-10c.549 0 .696.063 1 0-.06.312 0 .464 0 1v1c0 .536-.06.688 0 1-.304-.063-.451 0-1 0H1c-.549 0-.696-.063-1 0 .06-.312 0-.464 0-1v-1c0-.536.06-.688 0-1 .304.063.451 0 1 0h13z"></path>
	</symbol>
	<symbol
		xmlns="http://www.w3.org/2000/svg" viewBox="0 0 512 512" id="bell">
		<path fill="#919eab" d="M450.201 407.453c-1.505-.977-12.832-8.912-24.174-32.917-20.829-44.082-25.201-106.18-25.201-150.511 0-.193-.004-.384-.011-.576-.227-58.589-35.31-109.095-85.514-131.756V57.036C315.301 25.586 289.757 0 258.359 0h-4.719c-31.398 0-56.942 25.586-56.942 57.036v34.655c-50.372 22.734-85.525 73.498-85.525 132.334 0 44.331-4.372 106.428-25.201 150.511-11.341 24.004-22.668 31.939-24.174 32.917-6.342 2.935-9.469 9.715-8.01 16.586 1.473 6.939 7.959 11.723 15.042 11.723h109.947C179.391 477.903 213.785 512 256 512s76.609-34.097 77.223-76.238H443.17c7.082 0 13.569-4.784 15.042-11.723 1.457-6.871-1.669-13.652-8.011-16.586zM226.699 57.036c0-14.881 12.086-26.987 26.942-26.987h4.719c14.856 0 26.942 12.106 26.942 26.987v24.917a144.658 144.658 0 00-29.306-2.987A144.695 144.695 0 00226.7 81.95V57.036zM256 481.951c-25.673 0-46.614-20.617-47.223-46.188h94.445c-.608 25.57-21.549 46.188-47.222 46.188zm60.4-76.239H103.015c2.595-4.044 5.236-8.623 7.861-13.798 20.104-39.643 30.298-96.129 30.298-167.889 0-63.417 51.509-115.01 114.821-115.01s114.821 51.593 114.821 115.06c0 .185.003.369.01.553.057 71.472 10.25 127.755 30.298 167.286 2.625 5.176 5.267 9.754 7.861 13.798z"></path>
	</symbol>
	<symbol
		xmlns="http://www.w3.org/2000/svg" viewBox="0 0 24 24" id="mail-outline">
			<path fill="#000" d="M20 4H4c-1.1 0-1.99.9-1.99 2L2 18c0 1.1.9 2 2 2h16c1.1 0 2-.9 2-2V6c0-1.1-.9-2-2-2zm0 14H4V8l8 5 8-5v10zm-8-7L4 6h16l-8 5z"></path>
	</symbol>
	<symbol
		xmlns="http://www.w3.org/2000/svg" viewBox="0 0 24 24" id="marker">
			<path fill="#000" d="M12 2C8.13 2 5 5.13 5 9c0 5.25 7 13 7 13s7-7.75 7-13c0-3.87-3.13-7-7-7zM7 9c0-2.76 2.24-5 5-5s5 2.24 5 5c0 2.88-2.88 7.19-5 9.88C9.92 16.21 7 11.85 7 9zm5-2.5a2.5 2.5 0 100 5 2.5 2.5 0 000-5z"></path>
	</symbol>
	<symbol
		xmlns="http://www.w3.org/2000/svg" viewBox="0 0 46 48" id="criminal">
		<g fill="#23C0F5">
			<path d="M21.353 27.266h3.294a.775.775 0 00.771-.778.775.775 0 00-.771-.777h-3.294a.775.775 0 00-.771.777c0 .43.345.778.771.778z"></path>
			<path d="M42.843 35.2a.78.78 0 00-.068-.031l-5.847-2.267a2.187 2.187 0 01-1.288-1.358l-.234-.708c1.309-1.894 1.813-3.753.585-5.609-.556-.84-1.24-1.445-2.083-1.844.367-1.373.566-2.838.566-4.36v-.051h.052c.88 0 1.595-.72 1.595-1.607v-1.659a1.61 1.61 0 00-.823-1.405v-1.912C35.298 5.558 29.78 0 23 0S10.702 5.558 10.702 12.389V14.3a1.61 1.61 0 00-.823 1.405v1.659c0 .886.716 1.607 1.595 1.607h.052v.052c0 1.521.2 2.986.566 4.36-.843.398-1.527 1.003-2.083 1.843-1.228 1.856-.724 3.715.585 5.609l-.234.708a2.186 2.186 0 01-1.288 1.358L3.225 35.17a.737.737 0 00-.068.03A5.727 5.727 0 000 40.346v5.218A2.43 2.43 0 002.418 48h41.164A2.43 2.43 0 0046 45.564v-5.218a5.727 5.727 0 00-3.157-5.147zm-8.136-9.11c.45.68.818 1.698-.344 3.536-.604.954-1.51 1.968-2.547 3.03a.876.876 0 01-.635-.847v-2.833a.787.787 0 00-.007-.104 14.535 14.535 0 002.254-3.99c.506.276.92.666 1.279 1.208zm-21.293-3.8h.19a2.02 2.02 0 011.442.602 3.543 3.543 0 002.53 1.056h10.847c.956 0 1.855-.375 2.533-1.058.385-.387.896-.6 1.44-.6h.19c-1.145 5.309-5.008 9.226-9.586 9.226s-8.441-3.917-9.586-9.227zm2.266 11.217a2.437 2.437 0 00.682-1.698v-1.333c1.875 1.634 4.167 2.595 6.638 2.595s4.763-.961 6.638-2.595v1.333c0 .655.255 1.256.682 1.697-2.245 1.413-4.764 2.157-7.32 2.157s-5.075-.744-7.32-2.156zM23 37.218a14.95 14.95 0 005.169-.93c-2.107 2.157-4.113 4.498-5.169 7.12-1.056-2.622-3.062-4.963-5.169-7.12 1.664.612 3.407.93 5.169.93zm11.577-19.853a.052.052 0 01-.051.052h-1.698v-1.763h1.698c.028 0 .051.024.051.052v1.659zm-5.866.052v-1.763h2.573v1.763h-2.573zm-4.94 0v-1.763h3.397v1.763h-3.396zm-4.939 0v-1.763h3.396v1.763h-3.396zm-4.116 0v-1.763h2.573v1.763h-2.573zm14.922-3.318h-3.396v-1.71c0-3.155-.263-6.128-.74-8.374a14.478 14.478 0 00-.547-1.973c.973.497 1.874 1.364 2.635 2.557 1.32 2.07 2.048 4.836 2.048 7.79v1.71zm-8.336 0v-1.71c0-2.814.218-5.512.615-7.595.4-2.095.86-2.944 1.083-3.186.222.242.684 1.091 1.083 3.186.397 2.083.615 4.78.615 7.595v1.71h-3.396zm-.257-12.056c-.2.544-.382 1.2-.546 1.973-.478 2.245-.74 5.218-.74 8.373v1.71h-3.397v-1.71c0-2.954.728-5.72 2.048-7.79.761-1.193 1.662-2.06 2.635-2.556zm12.709 10.346v1.71H31.18v-1.71c0-3.249-.814-6.314-2.292-8.631-.17-.267-.348-.52-.531-.76a10.855 10.855 0 015.396 9.39zM17.642 2.998c-.183.24-.36.493-.53.76-1.479 2.317-2.293 5.382-2.293 8.63V14.1h-2.573v-1.71c0-4.01 2.174-7.518 5.396-9.391zm-6.22 14.367v-1.659c0-.028.024-.052.052-.052h1.698v1.763h-1.698a.052.052 0 01-.051-.052zm6.692 1.607l-.002.052v.83c0 .429.345.777.772.777a.775.775 0 00.771-.778v-.83l-.002-.051h6.694l-.002.052v.83c0 .429.345.777.771.777a.775.775 0 00.772-.778v-.83l-.002-.051h5.045v.052c0 .58-.033 1.15-.094 1.71h-.441c-.956 0-1.855.375-2.533 1.059-.385.387-.896.6-1.44.6H17.577a2.017 2.017 0 01-1.442-.603 3.543 3.543 0 00-2.53-1.056h-.442c-.061-.56-.094-1.13-.094-1.71v-.052h5.045zm-6.82 7.118c.358-.542.772-.932 1.279-1.208a14.535 14.535 0 002.254 3.99.787.787 0 00-.008.104v2.833a.876.876 0 01-.634.847c-1.037-1.061-1.944-2.076-2.548-3.03-1.162-1.838-.794-2.855-.344-3.536zm-9.75 19.474v-5.218a4.18 4.18 0 012.272-3.74l5.81-2.252a3.727 3.727 0 002.105-2.07c.91 1.05 1.992 2.114 3.093 3.195 3.267 3.21 6.944 6.825 7.364 10.966H9.776v-2.54a.775.775 0 00-.772-.777.775.775 0 00-.771.777v2.54H2.418a.879.879 0 01-.874-.881zm42.912 0a.879.879 0 01-.874.88h-5.815v-2.539a.775.775 0 00-.771-.778.775.775 0 00-.772.778v2.54H23.812c.42-4.141 4.096-7.755 7.364-10.966 1.1-1.081 2.183-2.144 3.093-3.195a3.727 3.727 0 002.105 2.07l5.81 2.252a4.18 4.18 0 012.272 3.74v5.218z"></path>
		</g>
	</symbol>
	 <symbol xmlns="http://www.w3.org/2000/svg" viewBox="0 0 92 80" id="file">
    <g fill="none" fill-rule="evenodd">
      <g fill-rule="nonzero" opacity=".357">
        <path stroke="#979797" stroke-dasharray="1,1" stroke-width="2" d="M82.946 5.853L68.457 1.97c-1.992-.534-4.046.686-4.587 2.704l-7.886 29.36c-.541 2.018.628 4.102 2.62 4.636l21.752 5.828c1.992.534 4.064-.681 4.605-2.7l5.901-22.023-7.916-13.923zM78 17.659L80.588 8l7.071 12.247L78 17.66z"></path>
        <path fill="#637381" d="M73.045 28.34c-.36.571-.816 1.163-1.39 1.794-.254.275-.52.53-.655.764l.101-.01a16.367 16.367 0 013.016-.03 2.98 2.98 0 01-.272-.363c-.39-.564-.659-1.305-.8-2.155zm5.14 5.06c-.206.135-.514.162-.925.052-.71-.19-1.813-.716-2.62-1.443-1.655-.253-2.91-.359-3.955-.308-.052.006-.113.01-.186.02-1.69 1.671-2.788 2.329-3.545 2.126a.868.868 0 01-.384-.213l-.371-.41-.015-.055a.879.879 0 01.088-.517c.236-.468.979-1.11 2.289-1.51.212-.084.533-.158.954-.236.411-.41.863-.9 1.349-1.442.734-.835 1.289-1.708 1.743-2.468l.003-.01c-.043-1.223-.066-1.96.613-3.111.18-.333.585-.615.931-.522l.225.06c.215.057.4.187.51.377.452.782-.242 2.21-.883 3.37-.034.051-.056.095-.073.121.091 1.157.396 2.15.855 2.794.193.252.414.511.668.76.433.066.84.155 1.223.258 1.16.31 1.806.704 1.959 1.216a.779.779 0 01-.026.544.935.935 0 01-.427.547zm-1.163-.565c-.061-.12-.345-.455-1.563-.781-.06-.017-.122-.033-.226.043.552.479 1.121.828 1.521.935.061.017.116.02.17.025l.036.01c.048-.008.077-.01.112-.105-.01-.034-.017-.077-.05-.127zm-7.573-1.317a5.006 5.006 0 00-.628.152c-.98.41-1.665.91-1.821 1.262.553-.007 1.398-.464 2.45-1.414zm3.731-5.538l.058-.023c.144-.266.24-.508.35-.688l.067-.135c.233-.481.283-.745.176-1.002l-.133-.084a1.157 1.157 0 00-.096.089c-.265.33-.43.982-.422 1.843z"></path>
      </g>
      <path d="M-11 23h64v64h-64z"></path>
      <path fill="#919EAB" fill-rule="nonzero" d="M26.875 27h-21.5C2.419 27 .027 29.385.027 32.3L0 74.7C0 77.615 2.392 80 5.348 80h32.277C40.581 80 43 77.615 43 74.7V42.9L26.875 27zM32 64.125h-7.875V72h-5.25v-7.875H11v-5.25h7.875V51h5.25v7.875H32v5.25zM24 46V31l15 15H24z"></path>
    </g>
  </symbol>
  <symbol xmlns="http://www.w3.org/2000/svg" viewBox="0 0 18 18" id="pdf-icon">
    <g fill="none">
      <path fill="#DA3737" d="M16 0H2C.9 0 0 .9 0 2v14c0 1.1.9 2 2 2h14c1.1 0 2-.9 2-2V2c0-1.1-.9-2-2-2z"></path>
      <path fill="#FFF" d="M8.313 8c-.2.645-.487 1.334-.878 2.093-.174.331-.365.645-.435.907l.096-.035a16.367 16.367 0 012.904-.81 2.98 2.98 0 01-.357-.28C9.122 9.43 8.67 8.785 8.313 8zm6.408 3.661c-.165.184-.455.29-.881.29-.736 0-1.936-.222-2.904-.716-1.664.184-2.903.407-3.9.726-.048.02-.106.039-.174.068C5.662 14.081 4.772 15 3.988 15a.868.868 0 01-.426-.106l-.465-.3-.029-.049a.879.879 0 01-.048-.522c.106-.513.658-1.326 1.82-2.052.183-.136.473-.29.86-.474.29-.503.6-1.094.93-1.742.493-.997.803-1.984 1.045-2.836v-.01c-.358-1.17-.571-1.877-.213-3.164.087-.368.406-.745.765-.745h.232c.222 0 .435.077.59.232.639.639.339 2.197.02 3.484-.02.058-.03.107-.04.136.388 1.093.94 1.974 1.55 2.477.251.194.532.387.841.561.436-.048.852-.067 1.249-.067 1.2 0 1.926.212 2.206.667a.779.779 0 01.117.533.935.935 0 01-.271.638zm-.802-.311c-.09-.1-.45-.35-1.712-.35-.063 0-.126 0-.207.1.658.32 1.297.51 1.712.51a.88.88 0 00.17-.02h.037c.045-.02.072-.03.081-.13-.018-.03-.036-.07-.081-.11zM6 12c-.249.12-.45.23-.568.31-.84.65-1.373 1.31-1.432 1.69.533-.15 1.23-.81 2-2zm2.187-6l.05-.037c.07-.295.1-.553.16-.756l.03-.147c.1-.525.08-.793-.09-1.014L8.187 4c-.02.028-.05.074-.07.11-.17.388-.16 1.06.07 1.89z"></path>
    </g>
  </symbol>
  <symbol xmlns="http://www.w3.org/2000/svg" viewBox="0 0 18 18" id="img-icon">
    <g fill="none">
      <path fill="#DA3737" d="M16 0H2C.9 0 0 .9 0 2v14c0 1.1.9 2 2 2h14c1.1 0 2-.9 2-2V2c0-1.1-.9-2-2-2z"></path>
      <path fill="#DA3737" d="M16 0H2C.9 0 0 .9 0 2v14c0 1.1.9 2 2 2h14c1.1 0 2-.9 2-2V2c0-1.1-.9-2-2-2z"></path>
      <path fill="#FFF" d="M12.5 9.5L10 12.51 6.5 8 2 14h14z"></path>
    </g>
  </symbol>
  <symbol xmlns="http://www.w3.org/2000/svg" viewBox="0 0 24 24" id="delete">
      <path fill="#000" d="M6 19c0 1.1.9 2 2 2h8c1.1 0 2-.9 2-2V7H6v12zM8 9h8v10H8V9zm7.5-5l-1-1h-5l-1 1H5v2h14V4h-3.5z"></path>
  </symbol>
  <symbol xmlns="http://www.w3.org/2000/svg" viewBox="0 0 64 64" id="right-arrow">
    <path d="M37.379 12.552a2 2 0 10-2.758 2.897L49.963 30H10a2 2 0 000 4h39.899L34.621 48.552a2 2 0 102.758 2.896l17.449-16.62C55.584 34.073 56 33.069 56 32s-.416-2.073-1.207-2.862z"></path>
  </symbol>
  <symbol xmlns="http://www.w3.org/2000/svg" xmlns:xlink="http://www.w3.org/1999/xlink" viewBox="0 0 36 36" id="hint">
    <defs>
      <circle id="a" cx="18" cy="18" r="18"></circle>
      <path id="c" d="M10 0C4.486 0 0 4.486 0 10s4.486 10 10 10 10-4.486 10-10S15.514 0 10 0m0 18c-4.411 0-8-3.589-8-8s3.589-8 8-8 8 3.589 8 8-3.589 8-8 8m0-4.1a1.1 1.1 0 10.001 2.201A1.1 1.1 0 0010 13.9M10 4C8.625 4 7.425 5.161 7.293 5.293A1.001 1.001 0 008.704 6.71C8.995 6.424 9.608 6 10 6a1.001 1.001 0 01.591 1.808C9.58 8.548 9 9.616 9 10.737V11a1 1 0 102 0v-.263c0-.653.484-1.105.773-1.317A3.013 3.013 0 0013 7c0-1.654-1.346-3-3-3"></path>
    </defs>
    <g fill="none" fill-rule="evenodd">
      <mask id="b" fill="#fff">
      </mask>
      <use fill="#FFF" xlink:href="#a"></use>
      <g mask="url(#b)">
        <use fill="#00cfc0" xlink:href="#c" transform="translate(8 8)"></use>
      </g>
    </g>
  </symbol>
</svg>